<svg xmlns="http://www.w3.org/2000/svg" width="266" height="73" fill="none" viewBox="0 0 118 32"><path fill="#fff" d="M42.0403 10.436C43.3603 10.436 44.5183 10.694 45.5143 11.21C46.5223 11.726 47.2963 12.464 47.8363 13.424C48.3883 14.372 48.6643 15.476 48.6643 16.736C48.6643 17.996 48.3883 19.1 47.8363 20.048C47.2963 20.984 46.5223 21.71 45.5143 22.226C44.5183 22.742 43.3603 23 42.0403 23H37.6483V10.436H42.0403ZM41.9503 20.858C43.2703 20.858 44.2903 20.498 45.0103 19.778C45.7303 19.058 46.0903 18.044 46.0903 16.736C46.0903 15.428 45.7303 14.408 45.0103 13.676C44.2903 12.932 43.2703 12.56 41.9503 12.56H40.1683V20.858H41.9503ZM59.8206 17.798C59.8206 18.158 59.7966 18.482 59.7486 18.77H52.4586C52.5186 19.49 52.7706 20.054 53.2146 20.462C53.6586 20.87 54.2046 21.074 54.8526 21.074C55.7886 21.074 56.4546 20.672 56.8506 19.868H59.5686C59.2806 20.828 58.7286 21.62 57.9126 22.244C57.0966 22.856 56.0946 23.162 54.9066 23.162C53.9466 23.162 53.0826 22.952 52.3146 22.532C51.5586 22.1 50.9646 21.494 50.5326 20.714C50.1126 19.934 49.9026 19.034 49.9026 18.014C49.9026 16.982 50.1126 16.076 50.5326 15.296C50.9526 14.516 51.5406 13.916 52.2966 13.496C53.0526 13.076 53.9226 12.866 54.9066 12.866C55.8546 12.866 56.7006 13.07 57.4446 13.478C58.2006 13.886 58.7826 14.468 59.1906 15.224C59.6106 15.968 59.8206 16.826 59.8206 17.798ZM57.2106 17.078C57.1986 16.43 56.9646 15.914 56.5086 15.53C56.0526 15.134 55.4946 14.936 54.8346 14.936C54.2106 14.936 53.6826 15.128 53.2506 15.512C52.8306 15.884 52.5726 16.406 52.4766 17.078H57.2106ZM65.818 20.678L68.338 13.028H71.02L67.33 23H64.27L60.598 13.028H63.298L65.818 20.678Z"/><path fill="#5CE1E6" d="M79.5634 16.556C80.2714 16.688 80.8534 17.042 81.3094 17.618C81.7654 18.194 81.9934 18.854 81.9934 19.598C81.9934 20.27 81.8254 20.864 81.4894 21.38C81.1654 21.884 80.6914 22.28 80.0674 22.568C79.4434 22.856 78.7054 23 77.8534 23H72.4354V10.436H77.6194C78.4714 10.436 79.2034 10.574 79.8154 10.85C80.4394 11.126 80.9074 11.51 81.2194 12.002C81.5434 12.494 81.7054 13.052 81.7054 13.676C81.7054 14.408 81.5074 15.02 81.1114 15.512C80.7274 16.004 80.2114 16.352 79.5634 16.556ZM74.9554 15.62H77.2594C77.8594 15.62 78.3214 15.488 78.6454 15.224C78.9694 14.948 79.1314 14.558 79.1314 14.054C79.1314 13.55 78.9694 13.16 78.6454 12.884C78.3214 12.608 77.8594 12.47 77.2594 12.47H74.9554V15.62ZM77.4934 20.948C78.1054 20.948 78.5794 20.804 78.9154 20.516C79.2634 20.228 79.4374 19.82 79.4374 19.292C79.4374 18.752 79.2574 18.332 78.8974 18.032C78.5374 17.72 78.0514 17.564 77.4394 17.564H74.9554V20.948H77.4934ZM83.3538 17.978C83.3538 16.97 83.5518 16.076 83.9478 15.296C84.3558 14.516 84.9018 13.916 85.5858 13.496C86.2818 13.076 87.0558 12.866 87.9078 12.866C88.6518 12.866 89.2998 13.016 89.8518 13.316C90.4158 13.616 90.8658 13.994 91.2018 14.45V13.028H93.7398V23H91.2018V21.542C90.8778 22.01 90.4278 22.4 89.8518 22.712C89.2878 23.012 88.6338 23.162 87.8898 23.162C87.0498 23.162 86.2818 22.946 85.5858 22.514C84.9018 22.082 84.3558 21.476 83.9478 20.696C83.5518 19.904 83.3538 18.998 83.3538 17.978ZM91.2018 18.014C91.2018 17.402 91.0818 16.88 90.8418 16.448C90.6018 16.004 90.2778 15.668 89.8698 15.44C89.4618 15.2 89.0238 15.08 88.5558 15.08C88.0878 15.08 87.6558 15.194 87.2598 15.422C86.8638 15.65 86.5398 15.986 86.2878 16.43C86.0478 16.862 85.9278 17.378 85.9278 17.978C85.9278 18.578 86.0478 19.106 86.2878 19.562C86.5398 20.006 86.8638 20.348 87.2598 20.588C87.6678 20.828 88.0998 20.948 88.5558 20.948C89.0238 20.948 89.4618 20.834 89.8698 20.606C90.2778 20.366 90.6018 20.03 90.8418 19.598C91.0818 19.154 91.2018 18.626 91.2018 18.014ZM101.727 12.884C102.915 12.884 103.875 13.262 104.607 14.018C105.339 14.762 105.705 15.806 105.705 17.15V23H103.185V17.492C103.185 16.7 102.987 16.094 102.591 15.674C102.195 15.242 101.655 15.026 100.971 15.026C100.275 15.026 99.723 15.242 99.315 15.674C98.919 16.094 98.721 16.7 98.721 17.492V23H96.201V13.028H98.721V14.27C99.057 13.838 99.483 13.502 99.999 13.262C100.527 13.01 101.103 12.884 101.727 12.884ZM114.005 23L110.621 18.752V23H108.101V9.68H110.621V17.258L113.969 13.028H117.245L112.853 18.032L117.281 23H114.005Z"/><path fill="#fff" d="M16.4063 0C13.2417 -3.77363e-08 10.1483 0.938383 7.51713 2.69649C4.88594 4.45459 2.83518 6.95345 1.62418 9.87706C0.413176 12.8007 0.096322 16.0177 0.713685 19.1214C1.33105 22.2251 2.8549 25.0761 5.09254 27.3137C7.33018 29.5513 10.1811 31.0752 13.2848 31.6926C16.3885 32.3099 19.6056 31.9931 22.5292 30.7821C25.4528 29.5711 27.9517 27.5203 29.7098 24.8891C31.4679 22.2579 32.4062 19.1645 32.4062 16L24.4062 16C24.4062 17.5823 23.9371 19.129 23.058 20.4446C22.179 21.7602 20.9295 22.7855 19.4677 23.391C18.0059 23.9965 16.3974 24.155 14.8455 23.8463C13.2937 23.5376 11.8682 22.7757 10.7494 21.6569C9.63057 20.538 8.86865 19.1126 8.55997 17.5607C8.25129 16.0089 8.40971 14.4003 9.01521 12.9385C9.62072 11.4767 10.6461 10.2273 11.9617 9.34824C13.2773 8.46919 14.824 8 16.4063 8L16.4063 0Z"/><path fill="#5CE1E6" d="M16.4063 0C14.3051 -2.5056e-08 12.2245 0.413852 10.2833 1.21793C8.34211 2.022 6.57828 3.20055 5.09254 4.68629C3.6068 6.17203 2.42825 7.93586 1.62418 9.87707C0.820102 11.8183 0.40625 13.8989 0.40625 16L8.40625 16C8.40625 14.9494 8.61318 13.9091 9.01521 12.9385C9.41725 11.9679 10.0065 11.086 10.7494 10.3431C11.4923 9.60028 12.3742 9.011 13.3448 8.60896C14.3154 8.20693 15.3557 8 16.4063 8L16.4063 0Z"/><circle cx="16.406" cy="16" r="5" fill="#5CE1E6"/><path fill="#fff" d="M21.4062 16C21.4062 15.3434 21.2769 14.6932 21.0256 14.0866C20.7744 13.48 20.4061 12.9288 19.9418 12.4645C19.4775 12.0002 18.9263 11.6319 18.3197 11.3806C17.713 11.1293 17.0629 11 16.4062 11C15.7496 11 15.0995 11.1293 14.4928 11.3806C13.8862 11.6319 13.335 12.0002 12.8707 12.4645C12.4064 12.9288 12.0381 13.48 11.7869 14.0866C11.5356 14.6932 11.4062 15.3434 11.4063 16L16.4062 16H21.4062Z"/></svg>